<svg width="12" height="8" viewBox="0 0 12 8" fill="none" xmlns="http://www.w3.org/2000/svg">
<path fill-rule="evenodd" clip-rule="evenodd" d="M2.15996 2.29999C2.28079 2.14241 2.45918 2.03917 2.65601 2.01293C2.85285 1.98668 3.05206 2.03957 3.20996 2.15999L5.99996 4.29999L8.79996 2.14999C8.87674 2.07835 8.9677 2.02364 9.06697 1.98938C9.16624 1.95513 9.2716 1.94211 9.37622 1.95115C9.48084 1.9602 9.58239 1.99111 9.67431 2.0419C9.76622 2.09268 9.84645 2.1622 9.90979 2.24596C9.97314 2.32971 10.0182 2.42583 10.042 2.5281C10.0659 2.63037 10.068 2.73651 10.0482 2.83964C10.0284 2.94277 9.98718 3.0406 9.9272 3.12679C9.86721 3.21298 9.78979 3.28562 9.69996 3.33999L6.45996 5.83999C6.18996 6.03999 5.80996 6.03999 5.53996 5.83999L2.29996 3.34999C2.1439 3.2277 2.04262 3.04858 2.01826 2.85182C1.9939 2.65506 2.04844 2.45665 2.16996 2.29999H2.15996Z" fill="#6F6F6F"/>
</svg>
