<svg width="136" height="24" viewBox="0 0 136 24" fill="none" xmlns="http://www.w3.org/2000/svg">
<mask id="mask0_9_725" style="mask-type:luminance" maskUnits="userSpaceOnUse" x="0" y="0" width="136" height="24">
<path d="M0 0H136V24H0V0Z" fill="white"/>
</mask>
<g mask="url(#mask0_9_725)">
<mask id="mask1_9_725" style="mask-type:luminance" maskUnits="userSpaceOnUse" x="-1" y="-12" width="137" height="48">
<path d="M-0.001 -12H135.999V36H-0.001V-12Z" fill="white"/>
</mask>
<g mask="url(#mask1_9_725)">
<path fill-rule="evenodd" clip-rule="evenodd" d="M66.999 12.5C66.999 15.84 64.569 18 61.119 18C57.669 18 55.239 15.84 55.239 12.5C55.239 9.16 57.669 7 61.119 7C64.569 7 66.999 9.16 66.999 12.5ZM57.779 12.5C57.779 14.57 59.129 16 61.119 16C63.109 16 64.459 14.57 64.459 12.5C64.459 10.43 63.109 9.05 61.119 9.05C59.129 9.05 57.779 10.43 57.779 12.5ZM40.749 12.29C41.699 11.85 42.309 11.11 42.309 9.96C42.309 8.23 40.729 7 38.439 7H33.169V18H38.669C41.039 18 42.689 16.71 42.689 14.95C42.689 13.62 41.819 12.63 40.749 12.29ZM35.599 9.01H38.429C39.279 9.01 39.869 9.51 39.869 10.21C39.869 10.91 39.269 11.41 38.429 11.41H35.599V9V9.01ZM38.669 16H35.609V13.3H38.669C39.629 13.3 40.259 13.85 40.259 14.66C40.259 15.46 39.629 15.99 38.669 15.99V16ZM51.839 18H55.029L49.969 12.29L54.609 7H51.709L48.029 11.27H47.429V7H44.999V18H47.439V13.62H48.029L51.829 18H51.839ZM76.469 7V11.34H71.539V7H69.099V18H71.529V13.56H76.459V18H78.889V7H76.459H76.469ZM86.899 18H84.459V9.22H80.659V7H90.699V9.22H86.899V18ZM96.599 7C94.459 7 92.579 7.89 92.029 9.8L94.269 10.17C94.4811 9.77587 94.8 9.44952 95.1891 9.22841C95.5783 9.00731 96.0219 8.90042 96.469 8.92C97.799 8.92 98.589 9.82 98.689 11.25H96.319C93.089 11.25 91.479 12.67 91.479 14.7C91.479 16.75 93.069 18 95.309 18C97.109 18 98.309 17.18 98.839 16.27L99.339 18H101.139V11.82C101.139 8.63 99.409 7 96.599 7ZM95.879 16.16C94.689 16.16 93.929 15.55 93.929 14.59C93.929 13.75 94.549 13.16 96.409 13.16H98.709C98.709 14.96 97.569 16.16 95.879 16.16ZM113.729 18H110.529L106.729 13.62H106.129V18H103.709V7H106.139V11.27H106.729L110.399 7H113.299L108.669 12.29L113.719 18H113.729ZM117.999 18H120.439V9.22H124.239V7H114.199V9.22H117.999V18ZM130.299 7C133.629 7 135.999 9.2 135.999 12.37C135.999 12.67 135.979 12.92 135.959 13.16H127.119C127.349 14.85 128.579 15.99 130.439 15.99C131.729 15.99 132.739 15.44 133.269 14.66L135.559 15.04C134.729 17.14 132.579 18 130.289 18C126.949 18 124.579 15.82 124.579 12.5C124.579 9.18 126.949 7 130.289 7H130.299ZM133.359 11.25C133.177 10.5834 132.774 9.99815 132.216 9.58959C131.659 9.18104 130.98 8.97323 130.289 9C129.604 8.97381 128.931 9.18275 128.382 9.59208C127.833 10.0014 127.44 10.5865 127.269 11.25H133.359Z" fill="black"/>
<path d="M11.499 24H12.499C17.939 24 20.649 24 22.329 22.32C23.999 20.64 23.999 17.92 23.999 12.5V11.48C23.999 6.08 23.999 3.36 22.329 1.68C20.649 0 17.929 0 12.499 0H11.499C6.059 0 3.349 0 1.669 1.68C-0.001 3.36 -0.001 6.08 -0.001 11.5V12.52C-0.001 17.92 -0.001 20.64 1.679 22.32C3.359 24 6.079 24 11.499 24Z" fill="#0077FF"/>
<path d="M12.769 17.29C7.299 17.29 4.179 13.54 4.049 7.29999H6.789C6.879 11.88 8.899 13.82 10.499 14.22V7.29999H13.079V11.25C14.659 11.08 16.319 9.27999 16.879 7.29999H19.459C19.248 8.32687 18.8273 9.29917 18.2234 10.1561C17.6194 11.0129 16.8452 11.736 15.949 12.28C16.9493 12.777 17.8329 13.4806 18.5413 14.3442C19.2498 15.2078 19.7671 16.2118 20.059 17.29H17.219C16.9569 16.3535 16.4243 15.5152 15.6878 14.8801C14.9514 14.2451 14.0438 13.8415 13.079 13.72V17.29H12.769Z" fill="white"/>
</g>
</g>
</svg>
