<svg width="24" height="24" viewBox="0 0 24 24" fill="none" xmlns="http://www.w3.org/2000/svg">
<path d="M12 2.09998C16.02 2.09998 18.9 5.37998 18.9 9.62998V11.23C18.9 11.46 19.1 11.76 19.62 12.31L19.89 12.58C20.97 13.68 21.4 14.31 21.4 15.33C21.4 15.77 21.35 16.12 21.13 16.53C20.68 17.41 19.71 17.9 18.26 17.9H16.36C15.72 20.23 14.22 21.5 12 21.5C9.74998 21.5 8.24998 20.2 7.62998 17.83L7.64998 17.9H5.73998C4.23998 17.9 3.26998 17.4 2.83998 16.49C2.63998 16.09 2.59998 15.77 2.59998 15.33C2.59998 14.31 3.02998 13.68 4.10998 12.58L4.37998 12.31C4.90998 11.76 5.09998 11.46 5.09998 11.23V9.62998C5.09998 5.37998 7.98997 2.09998 12 2.09998ZM14.47 17.9H9.52998C9.98998 19.15 10.78 19.7 12 19.7C13.22 19.7 14.01 19.15 14.47 17.9ZM12 3.89998C9.03998 3.89998 6.89998 6.32998 6.89998 9.62998V11.23C6.89998 12.08 6.50998 12.69 5.66998 13.56L5.38998 13.85C4.63998 14.6 4.39998 14.96 4.39998 15.33C4.39998 15.52 4.40998 15.62 4.45998 15.71C4.55998 15.93 4.88998 16.1 5.73998 16.1H18.26C19.08 16.1 19.42 15.93 19.54 15.7C19.59 15.6 19.6 15.5 19.6 15.33C19.6 14.96 19.36 14.6 18.61 13.85L18.33 13.56C17.49 12.69 17.1 12.08 17.1 11.23V9.62998C17.1 6.32998 14.97 3.89998 12 3.89998Z" fill="#6F6F6F"/>
</svg>
